<svg width="25" height="25" viewBox="0 0 25 25" fill="none" xmlns="http://www.w3.org/2000/svg">
<path d="M4.16667 0C4.6658 0 5.09549 0.399902 5.19097 0.952637L5.25608 1.5625H23.5156C24.3967 1.5625 25.0998 2.55127 24.8524 3.54785L22.5087 12.9248C22.3394 13.5986 21.7925 14.0625 21.1719 14.0625H7.40885L7.80816 16.4062H21.1806C21.7578 16.4062 22.2222 16.9287 22.2222 17.5781C22.2222 18.2275 21.7578 18.75 21.1806 18.75H6.90538C6.44531 18.75 6.01562 18.3496 5.92014 17.7979L3.30469 2.34375H1.04167C0.46658 2.34375 0 1.81885 0 1.17188C0 0.524902 0.46658 0 1.04167 0H4.16667ZM5.55556 22.6562C5.55556 21.3623 6.48872 20.3125 7.63889 20.3125C8.78906 20.3125 9.72222 21.3623 9.72222 22.6562C9.72222 23.9502 8.78906 25 7.63889 25C6.48872 25 5.55556 23.9502 5.55556 22.6562ZM22.2222 22.6562C22.2222 23.9502 21.2891 25 20.1389 25C18.9887 25 18.0556 23.9502 18.0556 22.6562C18.0556 21.3623 18.9887 20.3125 20.1389 20.3125C21.2891 20.3125 22.2222 21.3623 22.2222 22.6562Z" fill="white"/>
</svg>
