<svg width="30" height="30" viewBox="0 0 30 30" fill="none" xmlns="http://www.w3.org/2000/svg">
<path d="M12.5 0C5.5957 0 0 5.5957 0 12.5C0 19.4043 5.5957 25 12.5 25C19.4043 25 25 19.4043 25 12.5C25 5.5957 19.4043 0 12.5 0ZM12.5 6.25C14.4419 6.25 16.0156 7.82422 16.0156 9.76562C16.0156 11.707 14.4434 13.2812 12.5 13.2812C10.5586 13.2812 8.98438 11.707 8.98438 9.76562C8.98438 7.82422 10.5566 6.25 12.5 6.25ZM12.5 21.875C9.91553 21.875 7.57324 20.8237 5.87402 19.1265C6.66504 17.085 8.61816 15.625 10.9375 15.625H14.0625C16.3838 15.625 18.3369 17.084 19.126 19.1265C17.4268 20.8252 15.083 21.875 12.5 21.875Z" fill="white"/>
</svg>
