<svg width="19" height="19" viewBox="0 0 19 19" fill="none" xmlns="http://www.w3.org/2000/svg">
<path d="M13.8568 0H5.14312C2.30716 0 0 2.30716 0 5.14312V13.857C0 16.6928 2.30716 19 5.14312 19H13.857C16.6928 19 19 16.6928 19 13.857V5.14312C19 2.30716 16.6928 0 13.8568 0V0ZM17.8861 13.857C17.8861 16.0786 16.0786 17.8861 13.8568 17.8861H5.14312C2.92134 17.8861 1.11386 16.0786 1.11386 13.857V5.14312C1.11386 2.92134 2.92134 1.11386 5.14312 1.11386H13.857C16.0786 1.11386 17.8861 2.92134 17.8861 5.14312V13.857Z" fill="#7D6C65"/>
<path d="M9.49985 4.30469C6.63518 4.30469 4.30469 6.63518 4.30469 9.49985C4.30469 12.3645 6.63518 14.695 9.49985 14.695C12.3645 14.695 14.695 12.3645 14.695 9.49985C14.695 6.63518 12.3645 4.30469 9.49985 4.30469ZM9.49985 13.5811C7.24951 13.5811 5.41855 11.7503 5.41855 9.49985C5.41855 7.24951 7.24951 5.41855 9.49985 5.41855C11.7503 5.41855 13.5811 7.24951 13.5811 9.49985C13.5811 11.7503 11.7503 13.5811 9.49985 13.5811Z" fill="#7D6C65"/>
<path d="M14.8193 2.45972C13.9727 2.45972 13.2842 3.14841 13.2842 3.99482C13.2842 4.84138 13.9727 5.53008 14.8193 5.53008C15.6658 5.53008 16.3545 4.84138 16.3545 3.99482C16.3545 3.14827 15.6658 2.45972 14.8193 2.45972ZM14.8193 4.41607C14.5871 4.41607 14.398 4.22705 14.398 3.99482C14.398 3.76246 14.5871 3.57358 14.8193 3.57358C15.0517 3.57358 15.2407 3.76246 15.2407 3.99482C15.2407 4.22705 15.0517 4.41607 14.8193 4.41607Z" fill="#7D6C65"/>
</svg>
